<svg width="406" height="124" viewBox="0 0 406 124" fill="none" xmlns="http://www.w3.org/2000/svg">
<path d="M28.2575 33.9366C28.2575 37.9473 40.0858 49.7756 44.5724 49.7756V51.747H24.9945V49.7756C24.9945 49.7756 26.2181 49.7756 26.2181 47.3284C26.2181 45.2211 23.0231 39.2389 19.9641 39.2389C18.4685 39.2389 17.7208 42.23 17.7208 44.3373C17.7208 49.7756 23.295 49.7756 23.295 49.7756V51.747H0.182251V49.7756C0.182251 49.7756 7.59193 49.7756 7.59193 27.9545C7.59193 6.13326 0.182251 6.13325 0.182251 6.13325V4.16187H23.9748V6.13325C23.9748 6.13325 16.6331 6.13326 16.5651 27.0707C16.5651 27.2747 16.7011 30.9455 18.7404 30.9455C21.7995 30.9455 24.6546 25.3712 24.6546 22.5841C24.6546 19.797 22.2754 19.729 22.2754 19.729V17.7576H44.5724V19.729C42.0571 19.729 36.8228 19.729 30.5008 28.0224C30.2288 28.3623 28.2575 31.7612 28.2575 33.9366Z" fill="#F1F1F2"/>
<path d="M87.331 34.8203C87.331 44.4054 79.1735 53.7185 66.5975 53.7185C55.8568 53.7185 46.6117 44.4054 46.6117 33.6647C46.6117 21.0207 57.0804 14.8346 67.2093 14.8346V16.806C60.4114 16.806 53.4096 22.0403 53.4096 30.1978C53.4096 38.3552 59.1878 43.5896 66.5975 43.5896C72.5116 43.5896 76.9302 39.103 76.9302 34.1406C76.9302 29.7219 73.5313 26.255 69.6565 26.255C66.2576 26.255 63.3345 28.0904 63.3345 32.2371C63.3345 35.1602 65.9177 36.1799 65.9177 36.1799L64.966 37.9474C64.966 37.9474 57.0804 36.044 57.0804 28.6343C57.0804 23.8078 61.0232 17.7577 70.4043 17.7577C79.7853 17.7577 87.331 24.8275 87.331 34.8203Z" fill="#F1F1F2"/>
<path d="M116.358 49.8436V51.815H90.05V49.8436C90.05 49.8436 98.2075 49.8436 98.2075 27.9545C98.2075 6.06529 90.05 6.13325 90.05 6.13325V4.16187H114.386V6.13325C114.386 6.13325 108.2 6.20124 108.2 27.9545C108.2 49.7077 116.358 49.8436 116.358 49.8436Z" fill="#F1F1F2"/>
<path d="M147.42 49.8436V51.815H121.112V49.8436C121.112 49.8436 129.269 49.8436 129.269 27.9545C129.269 6.06529 121.112 6.13325 121.112 6.13325V4.16187H145.448V6.13325C145.448 6.13325 139.262 6.20124 139.262 27.9545C139.262 49.7077 147.42 49.8436 147.42 49.8436Z" fill="#F1F1F2"/>
<path d="M168.629 15.9901C174.883 15.9901 182.429 20.0688 182.429 28.7701C182.429 34.3444 177.194 38.9669 170.464 38.9669C166.114 38.9669 163.803 36.1798 163.803 36.1798L165.298 34.2764C165.298 34.2764 166.522 35.2961 168.629 35.2961C171.552 35.2961 173.999 32.9168 173.999 29.6539C173.999 25.3712 170.872 23.8757 168.833 23.8757C165.298 23.8757 162.171 29.042 162.171 34.9562C162.171 42.6378 165.706 47.5323 171.688 47.5323C177.67 47.5323 181.137 43.7934 181.137 43.7934L182.837 45.5609C182.837 45.5609 176.854 53.0385 167.405 53.0385C158.908 53.0385 150.139 45.6289 150.139 34.5483C150.139 21.7003 161.151 15.9901 168.629 15.9901Z" fill="#F1F1F2"/>
<path d="M215.331 33.9366C215.331 37.9473 227.159 49.7756 231.645 49.7756V51.747H212.068V49.7756C212.068 49.7756 213.291 49.7756 213.291 47.3284C213.291 45.2211 210.096 39.2389 207.037 39.2389C205.542 39.2389 204.794 42.23 204.794 44.3373C204.794 49.7756 210.368 49.7756 210.368 49.7756V51.747H187.255V49.7756C187.255 49.7756 194.665 49.7756 194.665 27.9545C194.665 6.13326 187.255 6.13325 187.255 6.13325V4.16187H211.048V6.13325C211.048 6.13325 203.706 6.13326 203.638 27.0707C203.638 27.2747 203.774 30.9455 205.814 30.9455C208.873 30.9455 211.728 25.3712 211.728 22.5841C211.728 19.797 209.348 19.729 209.348 19.729V17.7576H231.645V19.729C229.13 19.729 223.896 19.729 217.574 28.0224C217.302 28.3623 215.331 31.7612 215.331 33.9366Z" fill="#F1F1F2"/>
<path d="M262.848 14.3586V28.6342H260.876C260.876 28.6342 260.876 25.1673 253.467 25.1673V27.9544C253.467 49.7756 262.848 49.7756 262.848 49.7756V51.747C256.186 51.747 242.046 51.747 242.046 29.9938V25.3712C238.035 25.3712 238.035 28.6342 238.035 28.6342H236.064V14.3586H238.035C238.035 14.3586 238.035 17.7576 242.046 17.7576V14.6985C242.046 8.64841 236.744 8.17256 236.744 8.17256V6.20117H259.449V8.17256C259.449 8.17256 253.399 8.17256 253.399 14.6985V17.7576C260.876 17.7576 260.876 14.3586 260.876 14.3586H262.848Z" fill="#F1F1F2"/>
<path d="M296.293 49.7756V51.747H269.985V49.7756C269.985 49.7756 278.143 49.7757 278.143 34.7523C278.143 19.729 269.985 19.729 269.985 19.729V17.7576H294.322V19.729C294.322 19.729 288.136 19.729 288.136 34.7523C288.136 49.7757 296.293 49.7756 296.293 49.7756ZM283.173 0.762939C279.706 0.762939 276.919 3.55008 276.919 6.94902C276.919 10.348 279.706 13.2031 283.173 13.2031C286.64 13.2031 289.359 10.4159 289.359 6.94902C289.359 3.4821 286.572 0.762939 283.173 0.762939Z" fill="#F1F1F2"/>
<path d="M323.825 17.7577H344.898V19.7291C344.898 19.7291 334.225 25.9831 334.225 41.9581C334.225 49.7757 336.945 49.7757 336.945 49.7757V51.8151H308.937V49.7757C308.257 49.7757 311.656 49.7757 311.656 41.9581C311.656 25.9831 299.692 19.7291 299.692 19.7291V17.7577H322.125V19.7291C322.125 19.7291 317.775 19.7291 317.775 26.527C317.775 33.6647 322.533 38.8311 322.533 43.4537H323.417C323.417 38.8311 328.175 33.6647 328.175 26.527C328.175 19.3892 323.825 19.7291 323.825 19.7291V17.7577Z" fill="#F1F1F2"/>
<path d="M26.49 110.503V112.475H0.182251V110.503C0.182251 110.503 8.3397 110.503 8.3397 95.48C8.3397 80.4567 0.182251 80.4567 0.182251 80.4567V78.4853H24.5186V80.4567C24.5186 80.4567 18.3326 80.4567 18.3326 95.48C18.3326 110.503 26.49 110.503 26.49 110.503ZM13.3701 61.4906C9.90321 61.4906 7.11608 64.2777 7.11608 67.6767C7.11608 71.0756 9.90321 73.9307 13.3701 73.9307C16.837 73.9307 19.5562 71.1436 19.5562 67.6767C19.5562 64.2097 16.7691 61.4906 13.3701 61.4906Z" fill="#F1F1F2"/>
<path d="M67.2093 74.5426L64.4901 101.53H62.5187C62.5187 95.2761 62.1788 84.5355 55.245 84.5355C50.4865 84.5355 48.651 89.7019 48.651 95.4801C48.719 110.503 56.1967 110.503 56.1967 110.503V112.475H29.8889V110.503C29.8889 110.503 37.9784 110.843 37.9784 95.4801C37.9784 80.1169 29.8889 80.4568 29.8889 80.4568V78.4854H45.456C65.0339 78.4854 65.2379 74.5426 65.2379 74.5426H67.2093Z" fill="#F1F1F2"/>
<path d="M65.5096 112.475V110.503C74.075 110.503 78.3576 99.5588 78.3576 88.6822C78.3576 77.8056 74.075 66.861 65.5096 66.861V64.8896H96.372C108.744 64.8896 116.426 70.5999 116.426 80.1849C116.426 84.2636 114.25 90.9935 107.317 94.5964C109.628 96.5678 111.463 98.6071 112.687 100.714C116.494 107.58 114.59 115.67 117.989 119.273C119.145 120.496 120.776 121.176 123.224 121.176V123.147C102.694 123.147 105.957 112.475 99.9749 103.841C97.2557 99.9667 92.7012 97.5874 92.7012 97.5874V95.6161C92.7012 95.6161 101.334 93.0328 101.334 82.768C101.334 77.1938 99.0912 70.8718 96.372 70.8718C94.6726 70.8718 90.2539 76.7859 90.2539 89.9058C90.2539 110.503 96.9158 110.503 96.9158 110.503V112.475H65.5096Z" fill="#F1F1F2"/>
<path d="M139.675 76.7179C145.929 76.7179 153.474 80.7966 153.474 89.4979C153.474 95.0722 148.24 99.6947 141.51 99.6947C137.159 99.6947 134.848 96.9076 134.848 96.9076L136.344 95.0042C136.344 95.0042 137.567 96.0239 139.675 96.0239C142.598 96.0239 145.045 93.6446 145.045 90.3816C145.045 86.099 141.918 84.6034 139.878 84.6034C136.344 84.6034 133.217 89.7698 133.217 95.684C133.217 103.366 136.751 108.26 142.734 108.26C148.716 108.26 152.183 104.521 152.183 104.521L153.882 106.289C153.882 106.289 147.9 113.766 138.451 113.766C129.954 113.766 121.184 106.357 121.184 95.2761C121.184 82.4281 132.197 76.7179 139.675 76.7179Z" fill="#F1F1F2"/>
<path d="M180.983 110.571V112.543H154.675V110.571C154.675 110.571 162.833 110.571 162.833 88.6822C162.833 66.7931 154.675 66.861 154.675 66.861V64.8896H179.012V66.861C179.012 66.861 172.826 66.929 172.826 88.6822C172.826 110.435 180.983 110.571 180.983 110.571Z" fill="#F1F1F2"/>
<path d="M201.739 76.7179C207.993 76.7179 215.539 80.7966 215.539 89.4979C215.539 95.0722 210.305 99.6947 203.575 99.6947C199.224 99.6947 196.913 96.9076 196.913 96.9076L198.408 95.0042C198.408 95.0042 199.632 96.0239 201.739 96.0239C204.662 96.0239 207.11 93.6446 207.11 90.3816C207.11 86.099 203.983 84.6034 201.943 84.6034C198.408 84.6034 195.281 89.7698 195.281 95.684C195.281 103.366 198.816 108.26 204.798 108.26C210.78 108.26 214.247 104.521 214.247 104.521L215.947 106.289C215.947 106.289 209.965 113.766 200.516 113.766C192.018 113.766 183.249 106.357 183.249 95.2761C183.249 82.4281 194.262 76.7179 201.739 76.7179Z" fill="#F1F1F2"/>
<path d="M242.119 78.4854H263.192V80.4567C263.192 80.4567 252.519 86.7108 252.519 102.686C252.519 110.503 255.239 110.503 255.239 110.503V112.543H227.231V110.503C226.551 110.503 229.95 110.503 229.95 102.686C229.95 86.7108 217.986 80.4567 217.986 80.4567V78.4854H240.419V80.4567C240.419 80.4567 236.069 80.4567 236.069 87.2546C236.069 94.3924 240.827 99.5588 240.827 104.181H241.711C241.711 99.5588 246.469 94.3924 246.469 87.2546C246.469 80.1168 242.119 80.4567 242.119 80.4567V78.4854Z" fill="#F1F1F2"/>
<path d="M300.784 110.503V112.475H283.178V110.503C283.178 110.503 284.605 110.503 284.605 101.462C284.605 91.8772 283.586 88.1383 280.119 88.1383C274.884 88.1383 271.146 95.9559 271.146 100.85C271.146 103.366 272.369 107.376 274.884 107.376C279.031 107.376 280.255 100.51 280.255 97.9273H282.974C282.974 107.172 280.255 113.426 272.641 113.426C265.979 113.426 262.172 106.9 262.172 100.85C262.172 86.7788 272.641 77.8735 281.614 77.8735C287.121 77.8735 295.21 81.0685 295.21 94.3244V99.0829C295.21 110.503 300.784 110.503 300.784 110.503Z" fill="#F1F1F2"/>
<path d="M353.056 112.475H331.37V110.503C331.37 110.503 337.624 110.503 337.624 98.4711C337.624 85.4192 331.37 85.4192 330.555 85.4192C329.671 85.4192 323.417 85.4192 323.417 98.4711C323.417 110.503 329.671 110.503 329.671 110.503V112.475H305.198V110.503C305.198 110.503 313.356 110.435 313.356 95.4801C313.356 80.5247 305.198 80.4567 305.198 80.4567V78.4854H321.309V84.8754C321.785 82.6321 326.068 77.8735 333.953 77.8735C344.15 77.8735 347.549 84.8074 347.549 98.4711C347.549 110.435 352.376 110.503 353.056 110.503V112.475Z" fill="#F1F1F2"/>
<path d="M353.06 64.8896H405.947L403.636 87.8665H401.665C401.665 81.4764 401.665 71.5515 394.663 71.5515C389.361 71.5515 385.826 78.4174 385.826 88.6822C385.826 101.802 390.856 110.503 398.334 110.503V112.475H360.674V110.503C368.151 110.503 373.182 101.802 373.182 88.6822C373.182 78.4174 369.647 71.5515 364.344 71.5515C357.343 71.5515 357.343 81.4764 357.343 87.8665H355.371L353.06 64.8896Z" fill="#F1F1F2"/>
</svg>
